<svg width="32" height="32" viewBox="0 0 32 32" fill="none" xmlns="http://www.w3.org/2000/svg">
	<path d="M25.8578 14.32C29.6708 14.32 32.7618 11.1144 32.7618 7.16C32.7618 3.20564 29.6708 0 25.8578 0C22.0448 0 18.9539 3.20564 18.9539 7.16C18.9539 11.1144 22.0448 14.32 25.8578 14.32Z" fill="black"/>
	<path d="M0.761841 7.16C0.761841 11.1 3.84742 14.32 7.66584 14.32V0C3.84742 0 0.761841 3.2 0.761841 7.16Z" fill="black"/>
	<path d="M9.85791 7.16C9.85791 11.1 12.9435 14.32 16.7619 14.32V0C12.9628 0 9.85791 3.2 9.85791 7.16Z" fill="black"/>
	<path d="M25.8578 31.9399C29.6708 31.9399 32.7618 28.7343 32.7618 24.78C32.7618 20.8256 29.6708 17.62 25.8578 17.62C22.0448 17.62 18.9539 20.8256 18.9539 24.78C18.9539 28.7343 22.0448 31.9399 25.8578 31.9399Z" fill="black"/>
	<path d="M9.85791 24.7801C9.85791 28.72 12.9435 31.9401 16.7619 31.9401V17.64C12.9628 17.64 9.85791 20.84 9.85791 24.7801Z" fill="black"/>
	<path d="M0.761841 24.84C0.761841 28.8 3.84742 32 7.66584 32V17.7C3.84742 17.7 0.761841 20.9 0.761841 24.84Z" fill="black"/>
</svg>
