<svg
	width="32"
	height="32"
	viewBox="0 0 32 32"
	xmlns="http://www.w3.org/2000/svg"
>
	<g clipPath="url(#clip0_307_143)">
		<path d="M0 0V32H32V0H0Z" fill="#48A947" />
		<path
			d="M6.83734 22.3147V28C5.93067 28.0427 5.02401 28.032 4.11734 27.9787C4.09601 27.7014 4.06401 27.4667 4.06401 27.2427C4.06401 23.2427 4.05334 19.2534 4.06401 15.2534C4.07467 12.032 5.97334 9.32269 8.85334 8.37335C13.1307 6.95469 17.4507 10.048 17.8453 14.3894C18.144 17.6534 16.4267 20.5547 13.568 21.7814C12.6507 22.176 11.6907 22.304 10.7093 22.304C9.45067 22.3147 8.21334 22.3147 6.83734 22.3147ZM6.84801 19.4454C8.24534 19.4454 9.54667 19.424 10.848 19.4454C13.1627 19.488 14.816 17.76 15.104 15.712C15.424 13.3654 13.7813 11.2107 11.4453 10.88H11.4347C9.25867 10.592 7.06134 12.2774 6.88001 14.528C6.74134 16.128 6.84801 17.728 6.84801 19.4454Z"
			fill="#F9FBF9"
		/>
		<path
			d="M25.4827 14.9334L30.656 22.2081H27.3067L23.4667 16.9494C22.0694 18.6881 20.9067 20.4907 19.584 22.2081H16.2454L21.408 14.9334L16.8107 8.04272H20.16L23.4454 12.9494L26.7307 8.04272H30.0694L25.4827 14.9334Z"
			fill="#FAFCFA"
		/>
		<path
			d="M6.848 19.4453C6.848 17.7279 6.74134 16.1173 6.86934 14.5386C7.05067 12.2879 9.248 10.6026 11.424 10.8906C13.7707 11.2106 15.4133 13.3653 15.0933 15.7119C14.816 17.7599 13.152 19.4879 10.8373 19.4453C9.54667 19.4239 8.24534 19.4453 6.848 19.4453Z"
			fill="#4AA949"
		/>
	</g>
	<defs>
		<clipPath id="clip0_307_143">
			<rect width="32" height="32" fill="white" />
		</clipPath>
	</defs>
</svg>
