<svg width="80" height="80" viewBox="0 0 80 80" fill="none" xmlns="http://www.w3.org/2000/svg">
	<title>Instant Images Icon</title>
	<path d="M0 8C0 3.58172 3.58172 0 8 0H72C76.4183 0 80 3.58172 80 8V72C80 76.4183 76.4183 80 72 80H8C3.58172 80 0 76.4183 0 72V8Z" fill="#647FE8"/>
	<path fill-rule="evenodd" clip-rule="evenodd" d="M36.5 65L52.5 36.5816H44.4385V16.1215L27 44.0693H36.5V65Z" fill="white"/>
	<path fill-rule="evenodd" clip-rule="evenodd" d="M36.5 65L52.5 36.5816H44.4385V16.1215L27 44.0693H36.5V65Z" fill="white"/>
	<path fill-rule="evenodd" clip-rule="evenodd" d="M36.5 65L52.5 36.5817H44.4385L36.5 44.0693V65Z" fill="#C7D2FF"/>
	<path fill-rule="evenodd" clip-rule="evenodd" d="M36.5 65L52.5 36.5817H44.4385L36.5 44.0693V65Z" fill="#C7D2FF"/>
</svg>
